<svg xmlns="http://www.w3.org/2000/svg" viewBox="0 0 63.83 57.61"><title>house</title><path d="M6.74,28.9a2.84,2.84,0,0,0-.41,4l0.45,0.55a2.84,2.84,0,0,0,4,.41l4.6-3.75V57.53a3.84,3.84,0,0,0,3.83,3.83h9.71a3.81,3.81,0,0,0,3.81-3.84l-0.1-9.74A1.81,1.81,0,0,1,34.43,46h7.32a1.84,1.84,0,0,1,1.83,1.83v9.74a3.84,3.84,0,0,0,3.83,3.83H57.58a3.84,3.84,0,0,0,3.83-3.83V30.8l3,2.54a2.84,2.84,0,0,0,4-.32l0.46-.54a2.84,2.84,0,0,0-.32-4L40.32,4.43a2.84,2.84,0,0,0-4,.32m23.1,52.78a1.84,1.84,0,0,1-1.83,1.83H47.42a1.84,1.84,0,0,1-1.83-1.83V47.8A3.84,3.84,0,0,0,41.75,44H34.43a3.81,3.81,0,0,0-3.81,3.84l0.1,9.74a1.81,1.81,0,0,1-1.81,1.82H19.21a1.84,1.84,0,0,1-1.83-1.83V28.46L38.48,11.25,59.42,29.09V57.53Z" transform="translate(-5.7 -3.76)" style="fill:#C00337"/></svg>
