<svg xmlns="http://www.w3.org/2000/svg" viewBox="0 0 53.92 53.82"><title>pencil</title><path d="M19.16,6a0.83,0.83,0,0,1,.59.24L58.35,44.8a0.85,0.85,0,0,1,0,1.18l-3.72,3.73a0.84,0.84,0,0,1-1.18,0L14.85,11.18a0.84,0.84,0,0,1,0-1.18l3.72-3.73A0.83,0.83,0,0,1,19.16,6m0-2a2.83,2.83,0,0,0-2,.83L13.43,8.59a2.84,2.84,0,0,0,0,4L52,51.12a2.84,2.84,0,0,0,4,0l3.72-3.73a2.84,2.84,0,0,0,0-4L21.17,4.86a2.83,2.83,0,0,0-2-.83h0Z" transform="translate(-12.61 -4.03)" style="fill:#C00337"/><rect x="47.94" y="43.01" width="4.11" height="1" transform="translate(-28.73 44.07) rotate(-45)" style="fill:#C00337"/><path d="M65.53,57.85a1,1,0,0,1-.46-0.11L54.06,52a1,1,0,0,1-.24-1.59l5-5a1,1,0,0,1,1.58.22l6,10.81A1,1,0,0,1,65.53,57.85Zm-9.34-7L63,54.41l-3.72-6.73Z" transform="translate(-12.61 -4.03)" style="fill:#C00337"/><rect x="62.33" y="53.43" width="1.56" height="2" transform="translate(-32.6 56.65) rotate(-45.08)" style="fill:#C00337"/><rect x="45.56" y="41.5" width="4.11" height="1" transform="translate(-28.36 41.94) rotate(-45)" style="fill:#C00337"/><rect x="43.07" y="40.58" width="3.17" height="1" transform="translate(-28.58 39.57) rotate(-45)" style="fill:#C00337"/><rect x="14.71" y="7.31" width="8.31" height="6.28" transform="translate(-14.47 12.38) rotate(-45.05)" style="fill:#C00337"/><rect x="13.23" y="9.18" width="11.27" height="2" transform="translate(-14.28 12.31) rotate(-45.04)" style="fill:#fff"/></svg>
